<?xml version="1.0" encoding="utf-8"?>
<svg xmlns="http://www.w3.org/2000/svg" xmlns:xlink="http://www.w3.org/1999/xlink" style="margin: auto; background: none; display: block; shape-rendering: auto;" width="204px" height="204px" viewBox="0 0 100 100" preserveAspectRatio="xMidYMid">
<g transform="translate(50 50)">
<g>
<animateTransform attributeName="transform" type="rotate" values="0;60" keyTimes="0;1" dur="0.1485884101040119s" repeatCount="indefinite"></animateTransform><path d="M25.763346055976506 -3.5 L32.763346055976506 -3.5 L32.763346055976506 3.5 L25.763346055976506 3.5 A26 26 0 0 1 15.91276194123379 20.561712170965272 L15.91276194123379 20.561712170965272 L19.41276194123379 26.623889997456345 L13.35058411474272 30.123889997456345 L9.850584114742718 24.061712170965272 A26 26 0 0 1 -9.850584114742711 24.06171217096528 L-9.850584114742711 24.06171217096528 L-13.350584114742711 30.123889997456352 L-19.412761941233786 26.623889997456345 L-15.912761941233786 20.561712170965272 A26 26 0 0 1 -25.763346055976506 3.499999999999998 L-25.763346055976506 3.499999999999998 L-32.763346055976506 3.4999999999999987 L-32.763346055976506 -3.4999999999999902 L-25.763346055976506 -3.499999999999991 A26 26 0 0 1 -15.912761941233791 -20.561712170965272 L-15.912761941233791 -20.561712170965272 L-19.412761941233793 -26.62388999745634 L-13.350584114742734 -30.123889997456338 L-9.850584114742732 -24.06171217096527 A26 26 0 0 1 9.850584114742702 -24.061712170965283 L9.850584114742702 -24.061712170965283 L13.350584114742698 -30.123889997456356 L19.41276194123376 -26.623889997456363 L15.912761941233766 -20.56171217096529 A26 26 0 0 1 25.763346055976502 -3.5000000000000004 M0 -23A23 23 0 1 0 0 23 A23 23 0 1 0 0 -23" fill="#219ebc"></path></g></g>
<!-- [ldio] generated by https://loading.io/ --></svg>